<?xml version="1.0" encoding="UTF-8"?>
<svg version="1.1" xmlns="http://www.w3.org/2000/svg" width="1080" height="1080">
<path d="M0 0 C356.4 0 712.8 0 1080 0 C1080 356.4 1080 712.8 1080 1080 C723.6 1080 367.2 1080 0 1080 C0 723.6 0 367.2 0 0 Z " fill="#DDECFB" transform="translate(0,0)"/>
<path d="M0 0 C0.33 0 0.66 0 1 0 C1 170.28 1 340.56 1 516 C-167.3 516 -335.6 516 -509 516 C-509 515.67 -509 515.34 -509 515 C-508.19522217 514.94577881 -507.39044434 514.89155762 -506.5612793 514.83569336 C-412.12979575 508.17795311 -318.53294795 479.11680087 -225 415 C-223.75742432 414.10764648 -223.75742432 414.10764648 -222.48974609 413.19726562 C-213.34186848 406.61093615 -204.40596 399.89017632 -195.89453125 392.49609375 C-193.20685744 390.17838314 -190.46442495 387.95919807 -187.6875 385.75 C-175.19096129 375.52069046 -163.86037504 363.95461738 -152.4375 352.5625 C-151.87288055 352.00055939 -151.30826111 351.43861877 -150.72653198 350.85964966 C-144.59962994 344.75481128 -138.57945605 338.61714209 -133 332 C-132.12324911 330.99014397 -131.24569189 329.98098722 -130.3671875 328.97265625 C-123.54676511 321.00836992 -117.13788755 312.77713665 -110.83032227 304.40258789 C-109.46677195 302.61271212 -108.08701658 300.83515908 -106.69897461 299.06420898 C-100.62436285 291.30797273 -95.04519696 283.32783896 -89.6875 275.0625 C-89.27858521 274.4341626 -88.86967041 273.8058252 -88.44836426 273.15844727 C-59.11172283 228.03783434 -36.32474224 179.67262631 -21 128 C-20.55213135 126.49300537 -20.55213135 126.49300537 -20.09521484 124.95556641 C-14.5145197 105.88996541 -10.6216195 86.51399008 -7 67 C-6.81953125 66.02949707 -6.6390625 65.05899414 -6.453125 64.05908203 C-2.61972448 42.97124837 -0.77301505 21.40452008 0 0 Z " fill="#FEFEFE" transform="translate(1079,564)"/>
<path d="M0 0 C0.33 0 0.66 0 1 0 C1.06469482 0.82161621 1.12938965 1.64323242 1.19604492 2.48974609 C7.71111411 83.43318933 28.32951265 161.77538227 75 244 C75.58313965 244.98790527 76.1662793 245.97581055 76.76708984 246.99365234 C83.01719063 257.53995858 89.35382333 267.95949047 96.6484375 277.8203125 C98.26681152 280.00861225 99.85480823 282.20056857 101.4140625 284.4296875 C107.16494078 292.64195542 113.26785204 300.50997542 119.60107422 308.28076172 C120.87761714 309.8495951 122.14441485 311.42634525 123.41015625 313.00390625 C127.90692409 318.57926391 132.58485689 323.93781646 137.4453125 329.19921875 C138.76373656 330.64464697 140.07937934 332.09372934 141.34375 333.58666992 C147.11440748 340.37982493 153.44252291 346.62859491 159.74121094 352.92651367 C161.73663414 354.92411952 163.72391056 356.92959353 165.7109375 358.93554688 C172.11361115 365.36610356 178.53529102 371.51095635 185.65771484 377.14575195 C188.28544853 379.22597265 190.78314016 381.41933086 193.28222656 383.65039062 C208.43861378 397.15254089 225.129249 408.76135509 242 420 C243.06033447 420.7108374 243.06033447 420.7108374 244.14208984 421.43603516 C319.22213463 471.62398186 412.0289414 504.48794459 505.625 508.5625 C506.62917969 508.60568359 507.63335937 508.64886719 508.66796875 508.69335938 C511.11188383 508.79809859 513.55587617 508.90027256 516 509 C516 509.33 516 509.66 516 510 C345.72 510 175.44 510 0 510 C0 341.7 0 173.4 0 0 Z " fill="#FEFEFE" transform="translate(0,570)"/>
<path d="M0 0 C6.32318124 4.31236115 9.50606964 8.95381397 11.02734375 16.5625 C11.34243436 18.37300183 11.6449697 20.1857164 11.9375 22 C12.10588379 23.00780518 12.27426758 24.01561035 12.44775391 25.05395508 C14.24793343 36.08193856 15.6816017 47.15881483 17.11721802 58.23893738 C18.30555469 67.38920895 19.54024588 76.53325132 20.78009033 85.67666626 C21.18316403 88.65545638 21.58258538 91.63472216 21.98193359 94.61401367 C22.2312329 96.45494414 22.48073512 98.29584715 22.73046875 100.13671875 C22.84385086 100.9884668 22.95723297 101.84021484 23.0740509 102.71777344 C23.51322949 105.93092737 23.97192277 108.91576832 25 112 C25.06740865 113.56118428 25.08514456 115.1250252 25.0625 116.6875 C25.05347656 117.49574219 25.04445313 118.30398438 25.03515625 119.13671875 C25.02355469 119.75160156 25.01195312 120.36648438 25 121 C25.66 121 26.32 121 27 121 C27.1959375 119.90429688 27.391875 118.80859375 27.59375 117.6796875 C29.7564085 106.05304462 32.60963906 94.69365645 35.71582031 83.28588867 C38.56288734 72.792948 41.19399404 62.25489601 43.75 51.6875 C44.02654922 50.5459697 44.02654922 50.5459697 44.3086853 49.38137817 C44.67028417 47.88730757 45.03109784 46.3930467 45.39109802 44.89859009 C45.74246073 43.44265454 46.09623747 41.98729927 46.45252991 40.53256226 C47.36344518 36.78527916 48.20462317 33.03766298 48.95214844 29.25415039 C49.19279022 28.09415276 49.19279022 28.09415276 49.43829346 26.91072083 C49.74123688 25.44111725 50.02597023 23.96759269 50.28875732 22.49028015 C51.08655187 18.71166275 51.82809284 17.14476941 54.81933594 14.62573242 C57.86979474 12.99860082 60.67008686 11.92807388 64 11 C65.80791016 10.45279297 65.80791016 10.45279297 67.65234375 9.89453125 C72.99583233 8.60290171 78.34080128 8.63186106 83.8125 8.625 C84.82892578 8.60050781 85.84535156 8.57601563 86.89257812 8.55078125 C96.41101823 8.51438186 105.5386205 10.81251456 113 17 C117.60172381 22.56313872 118.94462576 28.99089182 120.75 35.875 C121.09071533 37.14061768 121.43143066 38.40623535 121.7824707 39.71020508 C124.72780233 50.69801952 127.47221103 61.73802314 130.19897461 72.78173828 C131.97477152 79.96597502 133.80137054 87.12770419 135.8125 94.25 C136.0089209 94.94673828 136.2053418 95.64347656 136.40771484 96.36132812 C136.59285645 97.01681641 136.77799805 97.67230469 136.96875 98.34765625 C141.45995423 114.25400458 141.45995423 114.25400458 141 121 C141.99 121 142.98 121 144 121 C143.96132813 119.31583984 143.96132813 119.31583984 143.921875 117.59765625 C143.92607791 112.79898891 144.54892817 108.17736483 145.25 103.4375 C145.52843738 101.47281093 145.80571461 99.50795721 146.08203125 97.54296875 C146.2310791 96.48899902 146.38012695 95.4350293 146.53369141 94.34912109 C148.83511759 77.81982039 150.87675255 61.25500434 152.80648804 44.67868042 C153.06050009 42.51701934 153.3208991 40.35622 153.58325195 38.19555664 C154.35819294 31.7757736 155.07536693 25.36756365 155.56640625 18.91796875 C155.71033813 17.32275391 155.71033813 17.32275391 155.85717773 15.6953125 C156.02931014 13.76215736 156.16595881 11.82533587 156.25805664 9.88671875 C156.51428819 7.25777808 156.81742997 5.36456655 158 3 C165.87107196 -3.33585326 176.68949138 -4.39485742 186.4375 -4.375 C187.26717285 -4.37338867 188.0968457 -4.37177734 188.95166016 -4.37011719 C196.7452601 -4.21421462 202.2571656 -2.27824703 208.875 1.75 C214.97944913 8.21353437 215.34275922 14.21075362 215.18920898 22.88208008 C214.95715211 29.3912516 213.9454544 35.77076941 212.875 42.1875 C212.76263 42.87752106 212.65026001 43.56754211 212.53448486 44.2784729 C208.92579586 66.42838984 203.77677991 88.19932109 198.5 110 C198.27270203 110.94418793 198.04540405 111.88837585 197.81121826 112.86117554 C194.80226239 125.32307107 191.44650126 137.62502686 187.65606689 149.87219238 C186.66829378 153.07581565 185.70955507 156.28781954 184.75 159.5 C182.12873754 168.23754153 182.12873754 168.23754153 179.23046875 170.1953125 C178.55628906 170.50210938 177.88210938 170.80890625 177.1875 171.125 C176.52105469 171.43695312 175.85460937 171.74890625 175.16796875 172.0703125 C164.68242788 176.56681471 154.7225818 177.32598827 143.375 177.25 C142.21226562 177.25773438 141.04953125 177.26546875 139.8515625 177.2734375 C131.52830719 177.25460661 123.29607553 177.12628492 116.1875 172.3125 C115.12595703 171.62607422 115.12595703 171.62607422 114.04296875 170.92578125 C108.25584905 165.4706187 106.17647357 157.44980256 103.6875 150.125 C103.29796143 148.9896582 102.90842285 147.85431641 102.50708008 146.68457031 C98.823701 135.78122623 95.70739018 124.74648134 92.71826172 113.63623047 C91.77658681 110.18000827 90.76491491 106.74789124 89.75 103.3125 C84.73544647 85.78317711 84.73544647 85.78317711 85 77 C84.34 77 83.68 77 83 77 C82.98582031 77.56203125 82.97164062 78.1240625 82.95703125 78.703125 C81.99899089 95.5853498 75.85255263 112.1643339 70.86865234 128.19238281 C69.76948949 131.74504522 68.69407342 135.30446637 67.62719727 138.86694336 C67.13062136 140.52267991 66.62988842 142.1771761 66.12475586 143.83032227 C64.91332134 147.8167355 63.78299505 151.79915841 62.796875 155.84765625 C59.64717787 168.44644478 59.64717787 168.44644478 55.25 171.375 C53.1796875 172.2890625 53.1796875 172.2890625 51 173 C50.23945313 173.29648437 49.47890625 173.59296875 48.6953125 173.8984375 C40.19225979 177.01908648 31.84837377 177.23918812 22.875 177.3125 C21.71484375 177.34150391 20.5546875 177.37050781 19.359375 177.40039062 C7.62922918 177.48567692 -2.90712971 174.67453796 -12 167 C-30.48301835 145.94989577 -34.03522879 99.81242525 -39.5 73.25 C-39.73512299 72.11176788 -39.97024597 70.97353577 -40.2124939 69.80081177 C-43.28610493 54.88306817 -46.23526448 39.94950161 -48.8125 24.9375 C-48.9455957 24.18529175 -49.07869141 23.4330835 -49.21582031 22.65808105 C-49.58138662 20.57493155 -49.92884972 18.48968818 -50.26953125 16.40234375 C-50.46135986 15.25241943 -50.65318848 14.10249512 -50.85083008 12.91772461 C-51.00867089 9.83039963 -50.72178905 8.52192949 -49 6 C-46.23705296 3.6181491 -43.15040055 1.82674388 -40 0 C-39.30261719 -0.42023438 -38.60523438 -0.84046875 -37.88671875 -1.2734375 C-27.33709261 -6.55761969 -10.00314956 -6.40517877 0 0 Z " fill="#5294BB" transform="translate(267,458)"/>
<path d="M0 0 C0.70910522 -0.00526703 1.41821045 -0.01053406 2.14880371 -0.01596069 C11.00920548 -0.06678983 19.47963716 0.44740907 28.1875 2.25 C28.90333252 2.38535156 29.61916504 2.52070313 30.35668945 2.66015625 C47.9135367 6.08890004 64.95569912 14.12008634 75.6640625 28.92578125 C85.83148755 44.43762203 86.8036721 60.8570891 86.71875 78.83984375 C86.72145213 80.88050012 86.72534051 82.92115523 86.73034668 84.96180725 C86.73619847 89.20684248 86.72781331 93.45153789 86.70898438 97.6965332 C86.68609497 103.11887064 86.6994085 108.54042022 86.72327423 113.96272945 C86.73776258 118.16394439 86.73311402 122.36497386 86.72276306 126.56619453 C86.72010947 128.56554828 86.72331697 130.56491928 86.73268127 132.56425285 C86.74290874 135.35830981 86.72726433 138.15110479 86.70507812 140.94506836 C86.71317505 141.75719284 86.72127197 142.56931732 86.72961426 143.40605164 C86.62617455 150.48372871 84.57345237 156.46638891 79.9375 161.875 C78.57625 163.050625 78.57625 163.050625 77.1875 164.25 C76.6925 164.76949219 76.1975 165.28898438 75.6875 165.82421875 C64.81185371 176.62703705 48.92921348 180.97736424 34.1875 183.25 C33.04087891 183.42732666 31.89425781 183.60465332 30.71289062 183.78735352 C21.15168572 185.12959959 11.78578113 185.53464945 2.13671875 185.45581055 C-0.23448054 185.43712988 -2.60529607 185.43530461 -4.9765625 185.43554688 C-6.4921909 185.43064461 -8.00781667 185.42482202 -9.5234375 185.41796875 C-10.22850433 185.41685593 -10.93357117 185.4157431 -11.66000366 185.41459656 C-16.58004782 185.36622609 -16.58004782 185.36622609 -18.8125 184.25 C-20.85228333 184.00463476 -22.89444136 183.77890598 -24.9375 183.5625 C-42.50264946 181.13040238 -60.53754691 172.98940143 -71.5 158.75 C-78.4714082 148.02106674 -80.25715129 138.0912527 -80.375 125.5 C-80.38974365 124.45900146 -80.4044873 123.41800293 -80.41967773 122.34545898 C-80.2618794 110.42554283 -75.90981133 99.47754465 -68.2109375 90.3515625 C-64.10332596 86.35252219 -59.29808512 83.68584716 -54.25 81.0625 C-53.64430176 80.7413623 -53.03860352 80.42022461 -52.41455078 80.08935547 C-37.25607246 72.62393029 -20.14583178 71.75037519 -3.625 70 C-1.17371685 69.73017562 1.27745628 69.45934981 3.72851562 69.1875 C8.18713245 68.69833084 12.64577067 68.20967509 17.10620117 67.73730469 C18.43732185 67.59551788 18.43732185 67.59551788 19.79533386 67.4508667 C21.91963189 67.27249249 24.05572621 67.25 26.1875 67.25 C25.29030761 60.47418879 24.32828103 55.93382272 19.1875 51.25 C16.7184393 49.89443726 14.82652922 49.03909587 12.1875 48.25 C11.52621094 48.04503906 10.86492187 47.84007812 10.18359375 47.62890625 C-9.24475598 42.72958328 -30.53029837 47.2242432 -49.1953125 52.91015625 C-56.43012229 55.05013223 -56.43012229 55.05013223 -59.8125 55.25 C-64.63885617 52.56869101 -66.53434085 46.83447744 -68.1875 41.875 C-70.47737112 33.52032378 -71.19447063 27.02446402 -66.8125 19.25 C-60.70676678 9.86220599 -51.10973833 6.15663522 -40.5625 3.5 C-38.3183765 3.05276312 -36.06779409 2.63698796 -33.8125 2.25 C-32.678125 2.04503906 -31.54375 1.84007812 -30.375 1.62890625 C-20.28345363 0.12964987 -10.1824097 0.03872121 0 0 Z " fill="#5294BB" transform="translate(666.8125,451.75)"/>
<path d="M0 0 C1.7634375 -0.0309375 1.7634375 -0.0309375 3.5625 -0.0625 C11.87635876 -0.09986566 17.66088337 0.67868849 24.625 5.5 C29.39380825 10.26880825 32.21019712 15.34865829 32.49804783 22.16288376 C32.49666514 23.87188795 32.49666514 23.87188795 32.49525452 25.61541748 C32.49662918 26.92511002 32.49800385 28.23480255 32.49942017 29.58418274 C32.49588122 31.03366112 32.49224641 32.48313926 32.48852539 33.93261719 C32.48824329 35.46028135 32.4884017 36.98794565 32.4889679 38.51560974 C32.48925498 42.66194672 32.48337255 46.80825481 32.47639394 50.95458508 C32.47014567 55.28810162 32.46955543 59.62161881 32.46836853 63.95513916 C32.46525957 72.16089196 32.45705203 80.36663146 32.44701904 88.5723784 C32.43584442 97.91449231 32.43034405 107.25660686 32.42532361 116.5987258 C32.41486907 135.81582475 32.39727802 155.0329113 32.375 174.25 C31.68702332 174.3873053 30.99904663 174.5246106 30.29022217 174.66607666 C29.38846252 174.846203 28.48670288 175.02632935 27.55761719 175.21191406 C26.6633905 175.39046936 25.76916382 175.56902466 24.84783936 175.75299072 C23.04816319 176.11470276 21.25012615 176.48459936 19.453125 176.859375 C14.68140813 177.46492283 9.9303747 177.47526191 5.125 177.5 C3.64580078 177.5309375 3.64580078 177.5309375 2.13671875 177.5625 C-6.97321922 177.61051021 -15.34560697 176.3991047 -22.15625 169.92578125 C-27.49578458 163.83359951 -28.75176351 157.77472127 -28.74525452 149.84025574 C-28.74662918 148.54601685 -28.74800385 147.25177795 -28.74942017 145.9183197 C-28.74588146 144.49136329 -28.74224666 143.06440712 -28.73852539 141.63745117 C-28.73824321 140.12934369 -28.73840186 138.62123607 -28.7389679 137.11312866 C-28.73925465 133.0247001 -28.73337756 128.93630091 -28.72639394 124.84787917 C-28.72014017 120.57309223 -28.719555 116.2983046 -28.71836853 112.02351379 C-28.71526119 103.93112529 -28.70705583 95.83875031 -28.69701904 87.74636775 C-28.68583938 78.53240236 -28.68034278 69.31843633 -28.67532361 60.10446584 C-28.66487273 41.15296957 -28.64728483 22.20148587 -28.625 3.25 C-19.53672136 -0.49913064 -9.71392755 0.0428871 0 0 Z " fill="#5294BB" transform="translate(819.625,456.75)"/>
<path d="M0 0 C7.36327569 6.92919612 11.04543173 14.09722413 11.47045898 24.20947266 C11.61050101 34.77165061 9.57230454 43.84400301 2.765625 52.21484375 C-4.69819964 59.76123282 -13.26967117 62.4163361 -23.6875 62.5 C-33.44215457 62.53497008 -40.52109585 59.82573062 -48 53.4375 C-48.66 52.633125 -49.32 51.82875 -50 51 C-51.0209375 49.948125 -51.0209375 49.948125 -52.0625 48.875 C-58.24956092 39.69419993 -59.2146859 29.75103576 -58 19 C-55.7285798 10.22588569 -51.34437073 2.51792753 -43.6796875 -2.52734375 C-29.39401855 -10.25235282 -13.03323828 -10.04645451 0 0 Z " fill="#5294BB" transform="translate(557,575)"/>
<path d="M0 0 C7.92278748 5.38104815 12.00958964 12.02876891 15 21 C15.97006734 32.33865591 13.91877759 41.23860474 6.76953125 50.1796875 C0.5934205 56.53303763 -6.8052977 60.18001613 -15.70898438 60.38037109 C-26.84685643 60.3510609 -35.83090179 57.95077042 -44 50 C-45.95893752 47.46285191 -47.57392304 44.86873621 -49 42 C-49.36351562 41.27039063 -49.72703125 40.54078125 -50.1015625 39.7890625 C-52.85399806 31.24454515 -52.26064439 20.38562247 -48.5 12.3125 C-44.05819619 4.80917253 -38.22654765 -0.39923728 -29.96484375 -3.33984375 C-19.98263738 -5.56249576 -9.02253112 -5.06176865 0 0 Z " fill="#5394BB" transform="translate(840,381)"/>
<path d="M0 0 C0 9.57 0 19.14 0 29 C-8.12863051 33.06431526 -14.60228694 33.18187566 -23.5 33.1875 C-25.02947266 33.20586914 -25.02947266 33.20586914 -26.58984375 33.22460938 C-35.16807839 33.24134195 -40.65219312 32.20353854 -47 26 C-49.28466838 22.05375462 -49.47409741 18.50392543 -49 14 C-46.82392536 9.3758414 -44.25503023 7.13214765 -39.67089844 4.93432617 C-33.80252688 2.88146896 -27.52397432 2.44842314 -21.375 1.75 C-19.96859263 1.57679393 -18.56234033 1.40232379 -17.15625 1.2265625 C-11.3923891 0.52465029 -5.82338589 0 0 0 Z " fill="#D4E7FA" transform="translate(694,559)"/>
</svg>
